<?xml version='1.0' encoding='iso-8859-1'?>
<!DOCTYPE svg PUBLIC '-//W3C//DTD SVG 1.1//EN' 'http://www.w3.org/Graphics/SVG/1.1/DTD/svg11.dtd'>
<svg version="1.1" xmlns="http://www.w3.org/2000/svg" viewBox="0 0 297 297" xmlns:xlink="http://www.w3.org/1999/xlink" enable-background="new 0 0 297 297">
  <g>
    <path d="m141.906,142.504c3.635-3.637 9.551-3.637 13.186,0 1.463,1.461 3.38,2.193 5.297,2.193 1.917,0 3.835-0.732 5.299-2.195 2.926-2.926 2.926-7.67-0.001-10.596-9.476-9.477-24.898-9.477-34.375,0-2.927,2.926-2.927,7.67-0.001,10.596 2.925,2.926 7.67,2.926 10.595,0.002z"/>
    <path d="m118.23,115.279c-2.926,2.926-2.926,7.67 0.001,10.596 2.927,2.926 7.669,2.926 10.596,0 5.254-5.256 12.241-8.148 19.673-8.148 7.432,0 14.419,2.893 19.673,8.148 1.464,1.463 3.381,2.195 5.299,2.195 1.917,0 3.835-0.732 5.297-2.195 2.927-2.926 2.927-7.67 0.001-10.596-8.084-8.086-18.835-12.539-30.27-12.539-11.435,0-22.186,4.453-30.27,12.539z"/>
    <path d="m293.697,128.584l-138.368-124.672c-3.797-3.422-9.565-3.424-13.366-0.006l-138.652,124.67c-3.076,2.766-4.13,7.143-2.647,11.006 1.48,3.863 5.189,6.412 9.327,6.412h31.38v139.672c0,5.518 4.473,9.99 9.989,9.99h194.281c5.517,0 9.989-4.473 9.989-9.99v-139.672h31.38c4.136,0 7.843-2.547 9.325-6.408 1.484-3.86 0.435-8.235-2.638-11.002zm-58.046,147.092h-174.301v-135.194l87.152-77.674 87.148,77.674v135.194zm13.795-149.661l-94.297-84.047c-3.787-3.377-9.506-3.377-13.293,0l-94.301,84.047h-11.512l112.594-101.24 112.362,101.24h-11.553z"/>
    <path d="m148.499,189.164c-10.927,0-19.817,8.891-19.817,19.818 0,10.928 8.891,19.816 19.817,19.816 10.927,0 19.817-8.889 19.817-19.816 0.001-10.927-8.89-19.818-19.817-19.818zm0,24.65c-2.665,0-4.833-2.168-4.833-4.832 0-2.666 2.168-4.832 4.833-4.832 2.665,0 4.833,2.166 4.833,4.832 0,2.664-2.168,4.832-4.833,4.832z"/>
    <path d="m168.317,169.172v-9.49c0-4.139-3.354-7.492-7.492-7.492h-24.65c-4.139,0-7.492,3.354-7.492,7.492v9.49c-1.636,0.816-3.219,1.732-4.744,2.746l-8.224-4.748c-1.722-0.992-3.767-1.264-5.686-0.748-1.919,0.514-3.557,1.77-4.55,3.49l-12.326,21.348c-0.993,1.721-1.262,3.766-0.748,5.686 0.515,1.918 1.77,3.555 3.49,4.549l8.224,4.748c-0.058,0.916-0.087,1.83-0.087,2.74 0,0.908 0.029,1.822 0.087,2.74l-8.224,4.748c-1.721,0.992-2.976,2.629-3.49,4.549-0.514,1.92-0.245,3.965 0.748,5.686l12.325,21.346c2.07,3.584 6.652,4.811 10.235,2.742l8.223-4.748c1.524,1.014 3.109,1.93 4.745,2.744v9.492c0,4.139 3.354,7.492 7.492,7.492h24.65c4.139,0 7.492-3.354 7.492-7.492v-9.492c1.636-0.814 3.221-1.73 4.745-2.744l8.223,4.748c3.585,2.066 8.165,0.84 10.235-2.742l12.325-21.346c0.993-1.721 1.262-3.766 0.748-5.686-0.515-1.92-1.77-3.557-3.491-4.549l-8.223-4.748c0.058-0.918 0.087-1.832 0.087-2.74 0-0.91-0.029-1.824-0.087-2.74l8.223-4.748c1.722-0.994 2.977-2.631 3.491-4.549 0.514-1.92 0.245-3.965-0.748-5.686l-12.325-21.348c-0.993-1.721-2.631-2.977-4.55-3.49-1.918-0.516-3.962-0.246-5.686,0.748l-8.224,4.748c-1.522-1.014-3.106-1.93-4.741-2.746zm13.971,14.72l4.833,8.371-6.02,3.475c-2.748,1.588-4.198,4.73-3.622,7.85 0.333,1.803 0.502,3.617 0.502,5.395 0,1.777-0.169,3.592-0.502,5.393-0.576,3.119 0.874,6.264 3.622,7.85l6.02,3.477-4.833,8.369-6.023-3.479c-2.748-1.588-6.204-1.268-8.618,0.797-2.769,2.369-5.905,4.184-9.32,5.393-2.993,1.059-4.994,3.889-4.994,7.063v6.945h-9.666v-6.945c0-3.174-2.001-6.004-4.994-7.063-3.415-1.209-6.552-3.023-9.32-5.393-2.416-2.068-5.871-2.385-8.618-0.797l-6.023,3.479-4.833-8.369 6.019-3.477c2.747-1.586 4.198-4.73 3.622-7.85-0.333-1.801-0.502-3.615-0.502-5.393 0-1.777 0.169-3.592 0.502-5.395 0.576-3.119-0.875-6.262-3.622-7.85l-6.019-3.475 4.833-8.371 6.024,3.479c2.75,1.588 6.203,1.271 8.617-0.795 2.773-2.373 5.909-4.188 9.319-5.393 2.993-1.059 4.995-3.889 4.995-7.064v-6.945h9.666v6.945c0,3.176 2.002,6.006 4.995,7.064 3.41,1.205 6.546,3.02 9.319,5.393 2.413,2.064 5.867,2.383 8.617,0.795l6.024-3.479z"/>
  </g>
</svg>
